<mxfile host="app.diagrams.net" modified="2024-03-12T23:59:34.212Z" agent="Mozilla/5.0 (Windows NT 10.0; Win64; x64) AppleWebKit/537.36 (KHTML, like Gecko) Chrome/122.0.0.0 Safari/537.36 Edg/122.0.0.0" etag="ZQAXWfa-MhogPWenJiTg" version="23.1.4" type="device">
  <diagram name="Página-1" id="kX8D4scxIE-BTSERjDd9">
    <mxGraphModel dx="1514" dy="392" grid="1" gridSize="10" guides="1" tooltips="1" connect="1" arrows="1" fold="1" page="1" pageScale="1" pageWidth="827" pageHeight="1169" math="0" shadow="0">
      <root>
        <mxCell id="0" />
        <mxCell id="1" parent="0" />
        <mxCell id="0czKDtH6Nphpp9u6a2KB-10" value="" style="rounded=0;whiteSpace=wrap;html=1;fillColor=#e1d5e7;strokeColor=#9673a6;" vertex="1" parent="1">
          <mxGeometry x="470" y="60" width="180" height="320" as="geometry" />
        </mxCell>
        <mxCell id="0czKDtH6Nphpp9u6a2KB-8" value="" style="rounded=1;whiteSpace=wrap;html=1;fillColor=#dae8fc;strokeColor=#6c8ebf;" vertex="1" parent="1">
          <mxGeometry x="175" y="75" width="230" height="290" as="geometry" />
        </mxCell>
        <mxCell id="0czKDtH6Nphpp9u6a2KB-12" style="edgeStyle=orthogonalEdgeStyle;rounded=0;orthogonalLoop=1;jettySize=auto;html=1;entryX=0;entryY=0.5;entryDx=0;entryDy=0;" edge="1" parent="1" source="0czKDtH6Nphpp9u6a2KB-1" target="0czKDtH6Nphpp9u6a2KB-2">
          <mxGeometry relative="1" as="geometry" />
        </mxCell>
        <mxCell id="0czKDtH6Nphpp9u6a2KB-1" value="Salva Dados" style="rounded=1;whiteSpace=wrap;html=1;fillColor=#fff2cc;strokeColor=#d6b656;" vertex="1" parent="1">
          <mxGeometry x="230" y="130" width="120" height="60" as="geometry" />
        </mxCell>
        <mxCell id="0czKDtH6Nphpp9u6a2KB-2" value="Código que Salva Dados" style="rounded=0;whiteSpace=wrap;html=1;fillColor=#f8cecc;strokeColor=#b85450;" vertex="1" parent="1">
          <mxGeometry x="500" y="110" width="120" height="60" as="geometry" />
        </mxCell>
        <mxCell id="0czKDtH6Nphpp9u6a2KB-3" value="Código Deleta Dados" style="rounded=0;whiteSpace=wrap;html=1;fillColor=#f8cecc;strokeColor=#b85450;" vertex="1" parent="1">
          <mxGeometry x="500" y="270" width="120" height="60" as="geometry" />
        </mxCell>
        <mxCell id="0czKDtH6Nphpp9u6a2KB-4" value="Código que Atualiza Dados" style="rounded=0;whiteSpace=wrap;html=1;fillColor=#f8cecc;strokeColor=#b85450;" vertex="1" parent="1">
          <mxGeometry x="500" y="190" width="120" height="60" as="geometry" />
        </mxCell>
        <mxCell id="0czKDtH6Nphpp9u6a2KB-13" style="edgeStyle=orthogonalEdgeStyle;rounded=0;orthogonalLoop=1;jettySize=auto;html=1;" edge="1" parent="1" source="0czKDtH6Nphpp9u6a2KB-5" target="0czKDtH6Nphpp9u6a2KB-4">
          <mxGeometry relative="1" as="geometry" />
        </mxCell>
        <mxCell id="0czKDtH6Nphpp9u6a2KB-5" value="Update Dados" style="rounded=1;whiteSpace=wrap;html=1;fillColor=#fff2cc;strokeColor=#d6b656;" vertex="1" parent="1">
          <mxGeometry x="230" y="190" width="120" height="60" as="geometry" />
        </mxCell>
        <mxCell id="0czKDtH6Nphpp9u6a2KB-14" style="edgeStyle=orthogonalEdgeStyle;rounded=0;orthogonalLoop=1;jettySize=auto;html=1;" edge="1" parent="1" source="0czKDtH6Nphpp9u6a2KB-6" target="0czKDtH6Nphpp9u6a2KB-3">
          <mxGeometry relative="1" as="geometry" />
        </mxCell>
        <mxCell id="0czKDtH6Nphpp9u6a2KB-6" value="Delete Dados" style="rounded=1;whiteSpace=wrap;html=1;fillColor=#fff2cc;strokeColor=#d6b656;" vertex="1" parent="1">
          <mxGeometry x="230" y="250" width="120" height="60" as="geometry" />
        </mxCell>
        <mxCell id="0czKDtH6Nphpp9u6a2KB-7" value="JPA" style="text;html=1;align=center;verticalAlign=middle;whiteSpace=wrap;rounded=0;" vertex="1" parent="1">
          <mxGeometry x="260" y="40" width="60" height="30" as="geometry" />
        </mxCell>
        <mxCell id="0czKDtH6Nphpp9u6a2KB-9" value="Interface" style="text;html=1;align=center;verticalAlign=middle;resizable=0;points=[];autosize=1;strokeColor=none;fillColor=none;" vertex="1" parent="1">
          <mxGeometry x="255" y="90" width="70" height="30" as="geometry" />
        </mxCell>
        <mxCell id="0czKDtH6Nphpp9u6a2KB-11" value="Implementação 2" style="text;html=1;align=center;verticalAlign=middle;resizable=0;points=[];autosize=1;strokeColor=none;fillColor=none;" vertex="1" parent="1">
          <mxGeometry x="500" y="70" width="120" height="30" as="geometry" />
        </mxCell>
        <mxCell id="0czKDtH6Nphpp9u6a2KB-16" style="edgeStyle=orthogonalEdgeStyle;rounded=0;orthogonalLoop=1;jettySize=auto;html=1;" edge="1" parent="1" source="0czKDtH6Nphpp9u6a2KB-15" target="0czKDtH6Nphpp9u6a2KB-1">
          <mxGeometry relative="1" as="geometry" />
        </mxCell>
        <mxCell id="0czKDtH6Nphpp9u6a2KB-17" style="edgeStyle=orthogonalEdgeStyle;rounded=0;orthogonalLoop=1;jettySize=auto;html=1;" edge="1" parent="1" source="0czKDtH6Nphpp9u6a2KB-15" target="0czKDtH6Nphpp9u6a2KB-5">
          <mxGeometry relative="1" as="geometry" />
        </mxCell>
        <mxCell id="0czKDtH6Nphpp9u6a2KB-18" style="edgeStyle=orthogonalEdgeStyle;rounded=0;orthogonalLoop=1;jettySize=auto;html=1;" edge="1" parent="1" source="0czKDtH6Nphpp9u6a2KB-15" target="0czKDtH6Nphpp9u6a2KB-6">
          <mxGeometry relative="1" as="geometry" />
        </mxCell>
        <mxCell id="0czKDtH6Nphpp9u6a2KB-15" value="Programa" style="rounded=0;whiteSpace=wrap;html=1;" vertex="1" parent="1">
          <mxGeometry x="-40" y="190" width="120" height="60" as="geometry" />
        </mxCell>
        <mxCell id="0czKDtH6Nphpp9u6a2KB-19" value="" style="rounded=0;whiteSpace=wrap;html=1;fillColor=#d5e8d4;strokeColor=#82b366;" vertex="1" parent="1">
          <mxGeometry x="670" y="60" width="180" height="320" as="geometry" />
        </mxCell>
        <mxCell id="0czKDtH6Nphpp9u6a2KB-20" value="Código que Salva Dados" style="rounded=0;whiteSpace=wrap;html=1;fillColor=#ffe6cc;strokeColor=#d79b00;" vertex="1" parent="1">
          <mxGeometry x="700" y="110" width="120" height="60" as="geometry" />
        </mxCell>
        <mxCell id="0czKDtH6Nphpp9u6a2KB-21" value="Código Deleta Dados" style="rounded=0;whiteSpace=wrap;html=1;fillColor=#ffe6cc;strokeColor=#d79b00;" vertex="1" parent="1">
          <mxGeometry x="700" y="270" width="120" height="60" as="geometry" />
        </mxCell>
        <mxCell id="0czKDtH6Nphpp9u6a2KB-22" value="Código que Atualiza Dados" style="rounded=0;whiteSpace=wrap;html=1;fillColor=#ffe6cc;strokeColor=#d79b00;" vertex="1" parent="1">
          <mxGeometry x="700" y="190" width="120" height="60" as="geometry" />
        </mxCell>
        <mxCell id="0czKDtH6Nphpp9u6a2KB-23" value="Implementação" style="text;html=1;align=center;verticalAlign=middle;resizable=0;points=[];autosize=1;strokeColor=none;fillColor=none;" vertex="1" parent="1">
          <mxGeometry x="705" y="70" width="110" height="30" as="geometry" />
        </mxCell>
        <mxCell id="0czKDtH6Nphpp9u6a2KB-24" value="Podemos usar tanto implementação 1 quanto a 2" style="text;html=1;align=center;verticalAlign=middle;resizable=0;points=[];autosize=1;strokeColor=none;fillColor=none;" vertex="1" parent="1">
          <mxGeometry x="145" y="380" width="290" height="30" as="geometry" />
        </mxCell>
      </root>
    </mxGraphModel>
  </diagram>
</mxfile>
